{"title":"Mere Hindustan Ki Kasam (2011) HDrip Hindi Dubbed","uid":7220754,"size":922171648,"categoryP":"video","categoryS":"movies","magnet":"?xt=urn:btih:dc92038f49a29aaebaf43dfa30b940a758d2e7b3&amp;dn=Mere+Hindustan+Ki+Kasam+%282011%29+HDrip+Hindi+Dubbed&amp;tr=udp%3A%2F%2Ftracker.openbittorrent.com%3A80&amp;tr=udp%3A%2F%2Fopen.demonii.com%3A1337&amp;tr=udp%3A%2F%2Ftracker.coppersurfer.tk%3A6969&amp;tr=udp%3A%2F%2Fexodus.desync.com%3A6969","seeders":0,"leechers":1,"uploader":"shaan666","files":-1,"time":1335521794,"description":"[B]Mere Hindustan Ki Kasam (2011) HDrip Hindi Dubbed[/B]\n &lt;a href=&quot;\nhttp://www.shotpix.com/images/07747716086166187566.png&quot; rel=&quot;nofollow&quot; target=&quot;_NEW&quot;&gt;\nhttp://www.shotpix.com/images/07747716086166187566.png&lt;/a&gt;\n\n\n\n[B]INFO[/B]\n\n[code]Format : Matroska\nFormat version : Version 2\nFile size : 837 MiB\nDuration : 1h 55mn\nOverall bit rate : 1 011 Kbps\nEncoded date : UTC 2012-04-23 23:58:41\nWriting application : mkvmerge v5.4.0 ('Piper') built on Mar 10 2012 13:34:39\nWriting library : libebml v1.2.3 + libmatroska v1.3.0\n\nVideo\nID : 1\nFormat : MPEG-4 Visual\nFormat profile : Advanced Simple@L5\nFormat settings, BVOP : Yes\nFormat settings, QPel : No\nFormat settings, GMC : No warppoints\nFormat settings, Matrix : Default (H.263)\nCodec ID : XVID\nCodec ID/Hint : XviD\nDuration : 1h 55mn\nBit rate : 863 Kbps\nWidth : 624 pixels\nHeight : 272 pixels\nDisplay aspect ratio : 2.25:1\nFrame rate : 25.000 fps\nColor space : YUV\nChroma subsampling : 4:2:0\nBit depth : 8 bits\nScan type : Progressive\nCompression mode : Lossy\nBits/(Pixel*Frame) : 0.203\nStream size : 714 MiB (85%)\nTitle : Mere Hindustan Ki Kasam 2011 Hindi Dubbed (Abdullah) TDT\nWriting library : XviD 1.2.1 (UTC 2008-12-04)\nLanguage : Hindi\nDefault : Yes\nForced : No\n\nAudio\nID : 2\nFormat : MPEG Audio\nFormat version : Version 1\nFormat profile : Layer 2\nMuxing mode : Header stripping\nCodec ID : A_MPEG/L2\nCodec ID/Hint : MP2\nDuration : 1h 55mn\nBit rate mode : Constant\nBit rate : 128 Kbps\nChannel(s) : 2 channels\nSampling rate : 48.0 KHz\nCompression mode : Lossy\nStream size : 106 MiB (13%)\nTitle : (Abdullah) TDT\nLanguage : Hindi\nDefault : Yes\nForced : No[/code]\n\n\n[B]SCREEN SHOTS[/B]\n &lt;a href=&quot;\nhttp://www.shotpix.com/images/04587828000376824820.png&quot; rel=&quot;nofollow&quot; target=&quot;_NEW&quot;&gt;\nhttp://www.shotpix.com/images/04587828000376824820.png&lt;/a&gt;\n &lt;a href=&quot;\nhttp://www.shotpix.com/images/01246025790419178107.png&quot; rel=&quot;nofollow&quot; target=&quot;_NEW&quot;&gt;\nhttp://www.shotpix.com/images/01246025790419178107.png&lt;/a&gt;\n &lt;a href=&quot;\nhttp://www.shotpix.com/images/75506851180557981783.png&quot; rel=&quot;nofollow&quot; target=&quot;_NEW&quot;&gt;\nhttp://www.shotpix.com/images/75506851180557981783.png&lt;/a&gt;\n &lt;a href=&quot;\nhttp://www.shotpix.com/images/06758486393568278715.png&quot; rel=&quot;nofollow&quot; target=&quot;_NEW&quot;&gt;\nhttp://www.shotpix.com/images/06758486393568278715.png&lt;/a&gt;\n &lt;a href=&quot;\nhttp://www.shotpix.com/images/53265330040934104184.png&quot; rel=&quot;nofollow&quot; target=&quot;_NEW&quot;&gt;\nhttp://www.shotpix.com/images/53265330040934104184.png&lt;/a&gt;\n &lt;a href=&quot;\nhttp://www.shotpix.com/images/79298815830901165646.png&quot; rel=&quot;nofollow&quot; target=&quot;_NEW&quot;&gt;\nhttp://www.shotpix.com/images/79298815830901165646.png&lt;/a&gt;\n &lt;a href=&quot;\nhttp://www.shotpix.com/images/76892402700185824379.png&quot; rel=&quot;nofollow&quot; target=&quot;_NEW&quot;&gt;\nhttp://www.shotpix.com/images/76892402700185824379.png&lt;/a&gt;\n &lt;a href=&quot;\nhttp://www.shotpix.com/images/25894360642273086607.png&quot; rel=&quot;nofollow&quot; target=&quot;_NEW&quot;&gt;\nhttp://www.shotpix.com/images/25894360642273086607.png&lt;/a&gt;\n &lt;a href=&quot;\nhttp://www.shotpix.com/images/80347380813254042044.png&quot; rel=&quot;nofollow&quot; target=&quot;_NEW&quot;&gt;\nhttp://www.shotpix.com/images/80347380813254042044.png&lt;/a&gt;\n\n\n\n*** PLEASE SEED AFTER DOWNLOAD ***\n\n** DO LIKE A COMMENT IF YA LIKE THIS SHARE **","torrent":{"xt":"urn:btih:dc92038f49a29aaebaf43dfa30b940a758d2e7b3","amp;dn":"Mere+Hindustan+Ki+Kasam+%282011%29+HDrip+Hindi+Dubbed","amp;tr":["udp%3A%2F%2Ftracker.openbittorrent.com%3A80","udp%3A%2F%2Fopen.demonii.com%3A1337","udp%3A%2F%2Ftracker.coppersurfer.tk%3A6969","udp%3A%2F%2Fexodus.desync.com%3A6969"],"infoHash":"dc92038f49a29aaebaf43dfa30b940a758d2e7b3","infoHashBuffer":{"type":"Buffer","data":[220,146,3,143,73,162,154,174,186,244,61,250,48,185,64,167,88,210,231,179]},"announce":[],"urlList":[]}}